# xmcd
#
# Track frame offsets:
#	150
#	18816
#	37796
#	59317
#	72808
#	87650
#	110161
#	125609
#	153810
#	176697
#	206953
#	229105
#
# Disc length: 3432 seconds
#
# Revision: 2
# Processed by: cddbd v1.5.2PL0 Copyright (c) Steve Scherf et al.
# Submitted via: audiograbber 1.83.01
#
DISCID=9f0d660c
DTITLE=Various Artist - Body and Soul - Night Moods
DYEAR=2002
DGENRE=Blues
TTITLE0=Marvin Gaye - Sexual Healing 
TTITLE1=Regina Belle - Baby Come to Me
TTITLE2=Billy Paul - Me and Mrs. Jones
TTITLE3=Deniece Williams And Johnny Mathis - Too Much, Too Little, Too Late
TTITLE4=The Stylistics - Betcha by Golly, Wow
TTITLE5=Earth, Wind and Fire - Reasons (Album Version)
TTITLE6=Aretha Franklin - Until You Come Back to Me (That's What I'm Gonna Do)
TTITLE7=Heatwave - Always and Forever
TTITLE8=Peabo Bryson - Can You Stop the Rain
TTITLE9=Luther Vandross - Power of Love/Love Power
TTITLE10=Surface - Shower Me with Your Love
TTITLE11=The O'Jays - Stairway to Heaven
EXTD=
EXTT0=
EXTT1=
EXTT2=
EXTT3=
EXTT4=
EXTT5=
EXTT6=
EXTT7=
EXTT8=
EXTT9=
EXTT10=
EXTT11=
PLAYORDER=
